<svg width="221" height="20" viewBox="0 0 221 20" fill="none" xmlns="http://www.w3.org/2000/svg">
<path d="M2.98195 11.7131C2.98195 12.7931 2.56195 13.4331 1.50195 13.4331C1.08195 13.4331 0.761953 13.3931 0.341953 13.3131L0.241953 14.9131C0.741953 14.9931 1.20195 15.0531 1.76195 15.0531C3.92195 15.0531 4.82195 13.7531 4.82195 11.6931V2.89307H2.98195V11.7131ZM11.9943 4.47307C13.9343 4.47307 14.5943 5.17307 14.5943 6.77307C14.5943 8.35307 13.8343 9.07307 12.0143 9.07307H9.3343V4.47307H11.9943ZM12.2143 10.6131C14.9343 10.6131 16.4143 8.99307 16.4143 6.75307C16.4143 4.19307 14.9943 2.89307 12.1743 2.89307H7.4943V14.8931H9.3343V10.6131H12.2143ZM23.7065 8.95307C23.7065 7.55307 23.7265 5.79307 23.6865 4.41307H24.0265C24.4465 5.83307 25.0065 7.53307 25.6265 9.21307L27.5865 14.1731H29.4465L31.4465 9.29307C32.0665 7.71307 32.6665 5.87307 33.1065 4.41307H33.4865C33.4465 5.77307 33.4065 7.59307 33.4065 8.95307V14.8931H35.2265V2.89307H32.3465L30.1465 8.41307C29.8065 9.33307 29.2665 10.9531 28.8465 12.2931H28.4665C28.0665 10.9531 27.4865 9.27307 27.1865 8.45307L25.0465 2.89307H21.9865V14.8931H23.7065V8.95307ZM41.8845 15.1331C44.8445 15.1331 46.5645 13.2331 46.5645 10.1931C46.5645 7.13307 44.7045 5.31307 41.8845 5.31307C39.0445 5.31307 37.2045 7.13307 37.2045 10.1931C37.2045 13.2331 38.9245 15.1331 41.8845 15.1331ZM41.8845 6.81307C43.8045 6.81307 44.8245 8.07307 44.8245 10.1731C44.8245 12.2731 43.8445 13.6131 41.8645 13.6131C39.8845 13.6131 38.9445 12.2731 38.9445 10.1731C38.9445 8.07307 39.9645 6.81307 41.8845 6.81307ZM50.169 14.8931V10.2731C50.169 8.17307 50.989 7.37307 53.009 7.37307H53.489V5.45307H53.129C51.689 5.45307 50.729 6.17307 50.249 8.21307L50.109 8.19307V5.55307H48.429V14.8931H50.169ZM58.5301 6.93307C60.1501 6.93307 60.9701 7.65307 60.9701 8.81307C60.9701 9.99307 60.2501 10.6731 58.5701 10.6731C56.8701 10.6731 56.2301 9.97307 56.2301 8.81307C56.2301 7.69307 56.9101 6.93307 58.5301 6.93307ZM58.7101 16.9731C56.1701 16.9731 55.4901 16.6131 55.4901 15.7731C55.4901 15.1931 56.0301 14.5731 57.1901 14.5731H60.5501C61.5901 14.5731 62.0101 15.0331 62.0101 15.6331C62.0101 16.5131 61.3901 16.9731 58.7101 16.9731ZM63.4501 15.5731C63.4501 14.1531 62.4701 13.3331 60.5701 13.3331C59.5501 13.3331 58.4301 13.3531 57.3901 13.3531C56.7501 13.3531 56.4101 13.1931 56.4101 12.7931C56.4101 12.5931 56.5301 12.4131 56.6901 12.1531L56.9501 11.7331C57.4101 11.8731 57.9301 11.9331 58.5301 11.9331C61.1301 11.9331 62.4901 10.8931 62.4901 9.15307C62.4901 7.79307 61.4301 7.25307 60.1501 6.99307V6.81307C60.9901 6.89307 61.5901 6.93307 62.0901 6.93307H63.2101V5.55307H58.6701C56.1301 5.55307 54.6301 6.69307 54.6301 8.81307C54.6301 10.1931 55.3501 11.2131 56.6901 11.6731L55.9901 12.1131C55.4301 12.4131 55.0301 12.8331 55.0301 13.3131C55.0301 13.9731 55.4901 14.3531 56.1901 14.4931V14.5931C54.8901 14.8731 54.0901 15.4531 54.0901 16.2731C54.0901 17.5131 55.1301 18.2931 58.6501 18.2731C62.2701 18.2931 63.4501 17.4131 63.4501 15.5731ZM67.9705 13.6931C66.5905 13.6931 66.1305 13.0331 66.1305 12.2931C66.1305 11.3731 66.8305 10.8931 68.0505 10.8931H70.7905V11.4131C70.7905 12.7331 69.6905 13.6931 67.9705 13.6931ZM70.8705 14.8931H72.5305V8.91307C72.5305 6.59307 71.3905 5.33307 68.7905 5.33307C66.5505 5.33307 65.2105 6.43307 64.8305 8.23307L66.4705 8.63307C66.7705 7.39307 67.4705 6.77307 68.7305 6.77307C70.2505 6.77307 70.7905 7.53307 70.7905 8.93307V9.69307H67.7905C65.5105 9.69307 64.4705 10.8731 64.4705 12.4931C64.4705 14.2931 65.6105 15.0931 67.3705 15.0931C69.0305 15.0931 70.2305 14.2131 70.6905 12.6731H70.8705V14.8931ZM76.6338 9.55307C76.6338 7.95307 77.7538 6.89307 79.4138 6.89307C80.9138 6.89307 81.4338 7.85307 81.4338 9.13307V14.8931H83.1738V8.71307C83.1738 6.67307 82.2338 5.31307 80.1538 5.31307C78.5338 5.31307 77.2938 6.31307 76.7738 7.97307H76.5938V5.55307H74.8938V14.8931H76.6338V9.55307ZM94.5451 15.1331C97.7251 15.1331 99.6051 13.3731 100.025 10.5131L98.2851 10.1931C97.8651 12.3331 96.7851 13.5331 94.5451 13.5331C91.9051 13.5331 90.6851 11.7331 90.6851 8.87307C90.6851 6.15307 91.9051 4.27307 94.5851 4.27307C96.6651 4.27307 97.8051 5.43307 98.2251 7.51307L99.9651 7.17307C99.5251 4.35307 97.6651 2.65307 94.6051 2.65307C91.0051 2.65307 88.8451 5.05307 88.8451 8.87307C88.8451 12.6931 90.8851 15.1331 94.5451 15.1331ZM103.626 9.55307C103.626 7.95307 104.726 6.89307 106.426 6.89307C107.866 6.89307 108.426 7.85307 108.426 9.13307V14.8931H110.166V8.71307C110.166 6.67307 109.226 5.31307 107.186 5.31307C105.486 5.31307 104.306 6.33307 103.766 7.97307H103.626V2.05307H101.886V14.8931H103.626V9.55307ZM115.471 13.6931C114.091 13.6931 113.631 13.0331 113.631 12.2931C113.631 11.3731 114.331 10.8931 115.551 10.8931H118.291V11.4131C118.291 12.7331 117.191 13.6931 115.471 13.6931ZM118.371 14.8931H120.031V8.91307C120.031 6.59307 118.891 5.33307 116.291 5.33307C114.051 5.33307 112.711 6.43307 112.331 8.23307L113.971 8.63307C114.271 7.39307 114.971 6.77307 116.231 6.77307C117.751 6.77307 118.291 7.53307 118.291 8.93307V9.69307H115.291C113.011 9.69307 111.971 10.8731 111.971 12.4931C111.971 14.2931 113.111 15.0931 114.871 15.0931C116.531 15.0931 117.731 14.2131 118.191 12.6731H118.371V14.8931ZM126.014 15.1331C128.614 15.1331 129.714 14.0131 129.714 12.3531C129.714 10.8531 128.814 9.97307 126.134 9.49307C124.294 9.19307 123.814 8.67307 123.814 7.93307C123.814 7.11307 124.434 6.61307 125.674 6.61307C126.894 6.61307 127.554 7.09307 127.854 8.39307L129.454 8.05307C129.034 6.37307 128.174 5.31307 125.714 5.31307C123.334 5.31307 122.134 6.39307 122.134 8.03307C122.134 9.51307 123.034 10.3731 125.454 10.8131C127.414 11.1531 128.034 11.5331 128.034 12.4131C128.014 13.3131 127.354 13.8131 126.034 13.8131C124.274 13.8131 123.594 12.9531 123.274 11.7331L121.694 12.0531C122.074 13.9131 123.094 15.1331 126.014 15.1331ZM135.554 6.69307C137.274 6.69307 138.094 7.69307 138.174 9.47307H132.714C132.914 7.61307 133.914 6.69307 135.554 6.69307ZM135.634 15.1131C138.054 15.1131 139.254 13.9931 139.714 12.2131L138.194 11.7931C137.894 12.8331 137.314 13.6731 135.634 13.6731C133.834 13.6731 132.834 12.6331 132.694 10.7331H139.734C139.774 10.3131 139.794 9.89307 139.794 9.61307C139.794 7.03307 138.394 5.31307 135.594 5.31307C132.774 5.31307 130.954 7.17307 130.954 10.2931C130.954 13.3931 132.734 15.1131 135.634 15.1131ZM141.211 12.7531V14.8931H143.371V12.7531H141.211ZM144.883 12.7531V14.8931H147.043V12.7531H144.883ZM148.555 12.7531V14.8931H150.715V12.7531H148.555ZM152.227 12.7531V14.8931H154.387V12.7531H152.227ZM155.899 12.7531V14.8931H158.059V12.7531H155.899ZM165.617 9.81307C165.617 6.65307 166.357 3.99307 168.817 1.35307L167.717 0.513066C164.837 3.21307 163.837 6.39307 163.837 9.81307C163.837 13.2331 164.837 16.4131 167.717 19.1131L168.817 18.2731C166.377 15.6131 165.617 12.9931 165.617 9.81307ZM180.516 11.9931V10.5331H178.716V2.89307H176.576L169.856 10.6531V11.9931H176.956V14.8931H178.716V11.9931H180.516ZM175.336 10.5331C174.356 10.5331 172.956 10.5931 171.696 10.7331L171.616 10.5931L176.836 4.49307L176.956 4.53307V10.5331H175.336ZM186.999 4.19307C188.759 4.19307 189.519 5.05307 189.519 6.25307C189.519 7.61307 188.659 8.33307 185.859 9.15307C182.959 10.0131 181.699 11.1131 181.699 13.8331C181.699 14.1931 181.699 14.5531 181.719 14.8931H191.479V13.3131H187.259C186.059 13.3131 184.419 13.3931 183.279 13.4931C183.359 11.7931 184.099 11.1731 186.759 10.3931C189.519 9.63307 191.319 8.59307 191.319 6.29307C191.319 3.89307 189.779 2.67307 186.999 2.67307C183.939 2.67307 182.459 4.41307 182.079 7.27307L183.779 7.51307C184.079 5.27307 185.079 4.19307 186.999 4.19307ZM198.169 13.6131C196.229 13.6131 195.229 12.6731 194.649 11.2331L192.929 11.7531C193.789 14.0531 195.429 15.0931 198.149 15.0931C201.029 15.0931 202.809 13.9131 202.809 11.2131C202.809 8.93307 201.389 7.65307 198.689 7.65307C197.269 7.65307 196.169 8.03307 195.429 8.53307V4.35307C197.009 4.45307 199.209 4.55307 202.149 4.55307V2.89307H193.809V9.21307L195.289 9.77307C195.889 9.35307 196.989 8.97307 198.189 8.97307C200.149 8.97307 201.009 9.73307 201.009 11.1931C201.009 12.8531 200.129 13.6131 198.169 13.6131ZM209.435 15.0931C212.715 15.0931 214.095 13.7331 214.095 11.6731C214.095 9.97307 213.355 9.15307 210.975 8.93307V8.71307C212.635 8.35307 213.555 7.45307 213.555 5.87307C213.555 3.71307 212.195 2.69307 209.395 2.69307C206.515 2.69307 205.175 4.17307 204.795 6.49307L206.495 6.69307C206.795 5.11307 207.555 4.19307 209.415 4.19307C211.035 4.19307 211.815 4.77307 211.815 6.21307C211.815 7.63307 210.835 8.19307 209.535 8.19307H207.555V9.53307H209.595C211.715 9.53307 212.295 10.1931 212.295 11.5131C212.295 12.8131 211.315 13.6131 209.455 13.6131C207.275 13.6131 206.335 12.6331 206.015 10.8531L204.235 11.0931C204.655 13.7531 206.355 15.0931 209.435 15.0931ZM218.548 9.81307C218.548 12.9731 217.808 15.6331 215.348 18.2731L216.468 19.1131C219.328 16.4131 220.348 13.2331 220.348 9.81307C220.348 6.39307 219.328 3.21307 216.468 0.513066L215.348 1.35307C217.788 4.01307 218.548 6.63307 218.548 9.81307Z" fill="#2E2D60"/>
</svg>
