<svg width="17" height="18" viewBox="0 0 17 18" fill="none" xmlns="http://www.w3.org/2000/svg">
<path opacity="1" d="M14.6162 2.07205H13.2455V0.701385H12.332V2.07205H5.02395V0.701385H4.11044V2.07205H2.74059C1.48117 2.07205 0.456421 3.0968 0.456421 4.35622V14.8619C0.456421 16.1214 1.48117 17.1461 2.74059 17.1461H14.6162C15.8756 17.1461 16.9003 16.1214 16.9003 14.8619V6.63958V5.72607V4.35541C16.8995 3.09599 15.8748 2.07205 14.6162 2.07205ZM15.986 14.8611C15.986 15.6163 15.3713 16.231 14.6162 16.231H2.74059C1.98461 16.231 1.36993 15.6163 1.36993 14.8611V6.63958H15.986V14.8611ZM15.986 5.72607H1.36993V4.35541C1.36993 3.59943 1.98461 2.98474 2.74059 2.98474H4.11126V3.89825H5.02395V2.98556H12.332V3.89906H13.2455V2.98556H14.6162C15.3713 2.98556 15.986 3.59943 15.986 4.35541V5.72607Z" fill="white"/>
</svg>
