<svg width="347" height="140" viewBox="0 0 347 140" fill="none" xmlns="http://www.w3.org/2000/svg">
<path d="M38.1303 68.0495L1.16695 105.699C0.799811 106.073 0.594116 106.576 0.594116 107.1V137.079C0.594116 138.184 1.48955 139.079 2.59412 139.079H343.67C344.774 139.079 345.67 138.184 345.67 137.079V3.14765C345.67 1.55402 343.897 0.600482 342.567 1.47897L322.61 14.6644C322.016 15.057 321.258 15.104 320.62 14.7878L309.688 9.37072C309.151 9.10487 308.524 9.09337 307.978 9.33941L206.268 55.1809C205.811 55.3867 205.294 55.4137 204.818 55.2566L164.693 42.0012C164.2 41.8384 163.663 41.8736 163.196 42.0992L81.4106 81.5864C80.929 81.8189 80.3745 81.8489 79.8707 81.6696L40.2278 67.5663C39.4942 67.3053 38.6758 67.4938 38.1303 68.0495Z" fill="url(#paint0_linear)" stroke="#04C6FF"/>
<defs>
<linearGradient id="paint0_linear" x1="265.48" y1="238.298" x2="245.985" y2="-13.6835" gradientUnits="userSpaceOnUse">
<stop offset="0.104167" stop-color="#030B0A" stop-opacity="0"/>
<stop offset="0.885417" stop-color="#55CECB" stop-opacity="0.32"/>
</linearGradient>
</defs>
</svg>
