<svg width="18" height="19" viewBox="0 0 18 19" fill="none" xmlns="http://www.w3.org/2000/svg">
<path d="M9.08404 9.80758V9.85662L9.12791 9.87856L11.8635 11.2464C12.2163 11.4228 12.3593 11.8518 12.1829 12.2046C12.0065 12.5574 11.5775 12.7004 11.2247 12.524L8.05043 10.9368C7.80846 10.8159 7.65562 10.5686 7.65562 10.298V5.53662C7.65562 5.14217 7.97538 4.82241 8.36983 4.82241C8.76428 4.82241 9.08404 5.14217 9.08404 5.53662V9.80758ZM9.1634 18.1544C4.38619 18.1544 0.5135 14.2817 0.5135 9.50446C0.5135 4.72726 4.38619 0.854564 9.1634 0.854564C13.9406 0.854564 17.8133 4.72726 17.8133 9.50446C17.8133 14.2817 13.9406 18.1544 9.1634 18.1544ZM9.1634 16.7259C13.1517 16.7259 16.3849 13.4928 16.3849 9.50446C16.3849 5.51615 13.1517 2.28299 9.1634 2.28299C5.17509 2.28299 1.94192 5.51615 1.94192 9.50446C1.94192 13.4928 5.17509 16.7259 9.1634 16.7259Z" fill="white" stroke="#202F4C" stroke-width="0.158714"/>
</svg>
