<svg width="320" height="321" viewBox="0 170 351 80" fill="none" xmlns="http://www.w3.org/2000/svg">
<path d="M242.242 239.349C242.242 239.349 292.114 197.69 290.41 183.273C290.257 182.027 290.123 180.857 290.008 179.726C288.726 167.706 289.262 161.494 298.547 153.922C308.694 145.64 311.815 132.182 305.784 120.372C299.734 108.563 287.003 132.009 277.296 134.52C267.609 137.013 267.877 141.192 264.297 151.545C260.87 161.494 260.87 164.984 250.876 171.387C250.474 171.655 250.053 171.904 249.612 172.173C238.336 179.113 238.91 198.802 238.91 198.802L242.242 239.349Z" fill="#BBE548"/>
<path opacity="0.56" d="M243.811 220.58C243.811 220.58 254.417 213.353 266.402 186.935C278.387 160.497 275.189 157.852 285.317 147.154C295.426 136.438 295.426 136.438 295.426 136.438C295.426 136.438 282.407 146.579 276.128 158.005C269.829 169.45 267.646 180.723 257.461 195.447C247.276 210.17 240.077 214.541 240.077 214.541L243.811 220.58Z" fill="#359E7D"/>
<path opacity="0.26" d="M242.241 239.349C242.241 239.349 292.114 197.69 290.41 183.273C290.257 182.027 290.123 180.857 290.008 179.726C288.457 182.583 286.236 185.708 283.02 188.852C271.973 199.683 269.178 200.853 258.82 215.001C250.435 226.485 256.58 188.871 250.837 171.387C250.435 171.655 250.014 171.904 249.573 172.173C238.297 179.113 238.871 198.802 238.871 198.802L242.241 239.349Z" fill="#1E5945"/>
<path d="M239.695 247.132L243.926 251.427C243.926 251.427 254.628 249.279 265.579 244.391C270.709 242.09 275.898 239.195 280.071 235.61C293.186 224.395 291.731 206.202 299.293 197.421C306.855 188.641 324.813 177.905 326.536 170.064C327.685 164.869 319.663 169.968 305.783 179.228C298.719 183.944 290.123 189.734 280.435 195.792C251.775 213.736 239.695 247.132 239.695 247.132Z" fill="#55CECB"/>
<path opacity="0.26" d="M239.695 247.132L243.926 251.427C243.926 251.427 254.628 249.279 265.579 244.391C260.275 240.844 259.873 232.6 266.67 226.178C277.027 216.401 286.657 197.057 296.842 190.654C301.495 187.721 304.213 183.235 305.783 179.228C298.719 183.944 290.123 189.734 280.435 195.792C251.775 213.736 239.695 247.132 239.695 247.132Z" fill="#1E5945"/>
<path d="M260.984 301.387C260.984 301.387 276.51 304.627 283.537 293.086C290.563 281.545 292.899 280.471 302.452 279.378C312.005 278.286 313.269 262.412 305.151 260.054C297.034 257.715 282.694 268.892 273.926 260.054C265.157 251.216 256.14 267.013 256.14 267.013L260.984 301.387Z" fill="#359E7D"/>
<path d="M322.479 240.537C317.54 244.736 310.762 245.541 305.976 248.838C303.928 250.219 302.243 252.078 301.228 254.82C297.82 264.022 293.532 268.355 276.569 267.55C259.607 266.744 256.18 255.721 256.18 246.346C256.18 236.952 261.005 227.635 261.005 227.635C261.005 227.635 264.719 224.894 270.347 221.519C281.509 214.81 300.194 205.569 312.39 210.074C330.731 216.842 329.505 234.575 322.479 240.537Z" fill="#BBE548"/>
<path opacity="0.4" d="M258.361 283.692C258.361 283.692 275.266 274.317 288.055 271.959C300.844 269.62 305.171 270.329 305.171 270.329C305.171 270.329 289.127 271.825 279.669 275.41C270.212 278.995 258.84 286.088 258.84 286.088L258.361 283.692Z" fill="#152B44"/>
<path opacity="0.4" d="M257.346 254.82C257.346 254.82 267.512 238.927 288.974 233.061C310.416 227.213 316.906 226.983 316.906 226.983C316.906 226.983 292.516 231.814 283.001 236.991C273.485 242.167 258.38 257.312 258.38 257.312L257.346 254.82Z" fill="#152B44"/>
<path opacity="0.12" d="M305.975 248.838C303.926 250.219 302.241 252.078 301.227 254.82C297.819 264.022 293.53 268.355 276.568 267.55C259.605 266.744 256.178 255.721 256.178 246.346C256.178 236.952 261.003 227.635 261.003 227.635C261.003 227.635 264.717 224.894 270.346 221.52C269.159 232.255 270.403 245.292 281.775 250.411C294.564 256.162 300.557 250.621 305.975 248.838Z" fill="#152B44"/>
<path d="M114.85 138.815C114.658 138.815 114.467 138.719 114.371 138.527C114.122 138.067 89.6358 91.6536 84.2752 74.4186C78.8954 57.107 82.0735 36.2104 82.1118 36.0187C82.1501 35.7311 82.4373 35.5202 82.7244 35.5586C83.0116 35.5969 83.2222 35.8845 83.1839 36.172C83.1456 36.3829 80.0058 57.0303 85.309 74.0927C90.6313 91.2318 115.08 137.549 115.328 138.029C115.462 138.297 115.367 138.623 115.099 138.757C115.022 138.796 114.926 138.815 114.85 138.815Z" fill="#336353"/>
<path d="M81.1737 53.1769C81.1737 53.1769 85.1559 39.5078 81.7672 24.2092C78.3977 8.91057 67.9062 0.245178 67.9062 0.245178C67.9062 0.245178 63.656 17.02 66.6235 32.3186C69.6101 47.6173 81.1737 53.1769 81.1737 53.1769Z" fill="#55CECB"/>
<path d="M85.6919 75.2814C85.6919 75.2814 82.1692 57.2413 90.8228 39.9105C99.4763 22.5797 105.966 16.905 105.966 16.905C105.966 16.905 104.071 49.7453 99.4763 60.6729C94.8815 71.5813 85.6919 75.2814 85.6919 75.2814Z" fill="#409DAD"/>
<path d="M89.5975 85.3271C89.5975 85.3271 74.3006 82.0488 62.8328 68.9549C51.3458 55.8801 46.7509 44.5115 46.7509 44.5115C46.7509 44.5115 65.1302 52.7168 73.2477 60.6537C81.3651 68.5906 89.5975 85.3271 89.5975 85.3271Z" fill="#225C7F"/>
<path d="M95.475 98.3252C95.475 98.3252 93.5414 85.1162 98.2702 77.256C102.999 69.415 119.023 61.689 119.023 61.689C114.869 73.0958 110.868 86.1323 102.884 95.4878C100.931 97.7692 98.1936 97.75 95.475 98.3252Z" fill="#66C1C6"/>
<path d="M262.535 238.083C262.669 238.083 262.784 238.026 262.841 237.911C263.013 237.623 279.574 209.231 283.288 198.629C287.04 187.989 285.279 174.972 285.26 174.838C285.241 174.646 285.068 174.531 284.858 174.55C284.666 174.569 284.532 174.742 284.551 174.933C284.571 175.068 286.294 187.932 282.599 198.418C278.885 208.962 262.362 237.317 262.19 237.585C262.094 237.738 262.152 237.949 262.324 238.045C262.42 238.064 262.477 238.083 262.535 238.083Z" fill="#336353"/>
<path d="M285.624 185.497C285.624 185.497 283.25 176.946 285.681 167.514C288.093 158.082 295.005 152.867 295.005 152.867C295.005 152.867 297.513 163.335 295.349 172.786C293.205 182.238 285.624 185.497 285.624 185.497Z" fill="#55CECB"/>
<path d="M282.369 199.127C282.369 199.127 284.915 187.989 279.574 177.119C274.232 166.23 270.116 162.606 270.116 162.606C270.116 162.606 270.844 183.004 273.658 189.849C276.472 196.693 282.369 199.127 282.369 199.127Z" fill="#409DAD"/>
<path d="M279.669 205.301C279.669 205.301 289.625 203.499 297.245 195.581C304.864 187.663 308.023 180.666 308.023 180.666C308.023 180.666 296 185.458 290.62 190.27C285.279 195.063 279.669 205.301 279.669 205.301Z" fill="#225C7F"/>
<path d="M275.687 213.276C275.687 213.276 277.142 205.109 274.194 200.163C271.265 195.217 260.984 190.175 260.984 190.175C263.511 197.306 265.885 205.473 270.92 211.397C272.165 212.835 273.926 212.873 275.687 213.276Z" fill="#66C1C6"/>
<path d="M114.85 193.683C114.85 193.683 50.9054 149.263 50.5416 130.456C50.5034 128.846 50.4842 127.293 50.4268 125.817C49.9673 110.154 48.34 102.294 36.4701 94.2609C23.5089 85.4805 17.7462 68.7823 22.7814 52.5443C27.8356 36.3062 46.2149 64.0854 57.7402 65.5424C69.2655 66.9802 69.6292 72.3865 75.3919 85.0395C80.9439 97.1557 81.5183 101.623 94.02 108.045C94.5369 108.313 95.0538 108.563 95.5899 108.831C109.642 115.675 112.169 141.058 112.169 141.058L114.85 193.683Z" fill="#BBE548"/>
<path opacity="0.56" d="M110.006 169.872C110.006 169.872 96.6621 162.53 78.6466 130.782C60.6311 99.0345 63.8666 95.066 50.5417 83.1607C37.2167 71.2553 37.1976 71.2553 37.1976 71.2553C37.1976 71.2553 53.7581 81.8954 62.8328 95.4303C71.8884 108.965 76.2152 123.037 90.2868 140.099C104.358 157.162 113.299 161.456 113.299 161.456L110.006 169.872Z" fill="#359E7D"/>
<path opacity="0.26" d="M114.85 193.683C114.85 193.683 50.9054 149.263 50.5416 130.456C50.5033 128.846 50.4842 127.293 50.4267 125.817C52.6667 129.191 55.7299 132.795 59.9035 136.246C74.3197 148.151 77.7275 149.148 91.8757 165.425C103.363 178.653 90.2292 131.511 94.0008 108.026C94.5177 108.294 95.0347 108.543 95.5707 108.812C109.623 115.656 112.15 141.039 112.15 141.039L114.85 193.683Z" fill="#1E5945"/>
<path d="M119.023 228.939C119.023 228.939 93.4457 244.717 59.9227 224.951C26.3998 205.186 0.802872 204.15 0.802872 204.15C0.802872 204.15 1.20492 203.805 1.95157 203.211C7.2356 199.07 29.7885 183.1 48.7229 196.118C69.993 210.726 86.228 216.65 96.7769 217.992C96.9492 218.011 97.1215 218.03 97.2938 218.049C107.843 219.257 114.831 213.506 114.831 213.506L119.023 228.939Z" fill="#359E7D"/>
<path d="M119.023 203.192L114.85 209.461C114.85 209.461 102.233 208.656 88.87 204.342C82.6095 202.31 76.1959 199.53 70.8162 195.696C53.9686 183.676 52.705 160.076 42.6156 150.183C32.5261 140.291 10.1839 129.747 6.92923 120.008C4.78499 113.547 14.7978 118.647 32.2198 128.021C41.1031 132.795 51.8818 138.681 63.9814 144.7C99.7635 162.549 119.023 203.192 119.023 203.192Z" fill="#5BD882"/>
<path opacity="0.26" d="M119.023 203.192L114.85 209.461C114.85 209.461 102.233 208.656 88.87 204.342C94.3838 198.84 93.5223 188.181 84.6773 181.183C71.2183 170.524 57.0319 147.442 44.3387 141.077C38.5186 138.163 34.6896 132.891 32.239 128.041C41.1223 132.814 51.901 138.7 64.0006 144.72C99.7636 162.549 119.023 203.192 119.023 203.192Z" fill="#1E5945"/>
<path opacity="0.58" d="M119.023 228.939C119.023 228.939 93.4457 244.717 59.9227 224.951C26.3998 205.186 0.802872 204.15 0.802872 204.15C0.802872 204.15 1.20492 203.805 1.95157 203.211C15.0276 203.268 34.4215 205.281 52.1498 214.675C81.48 230.204 92.0864 231.45 96.7769 217.992C96.9492 218.011 97.1215 218.03 97.2938 218.049C107.843 219.257 114.831 213.506 114.831 213.506L119.023 228.939Z" fill="#1E5945"/>
<path d="M265.177 21.1306V278.063C265.177 287.036 257.901 294.301 248.961 294.301H124.078C115.118 294.301 107.862 287.036 107.862 278.063V21.1306C107.862 12.1584 115.137 4.89255 124.078 4.89255H248.961C257.901 4.89255 265.177 12.1776 265.177 21.1306Z" fill="#203B63"/>
<path d="M258.361 20.7472V274.459C258.361 278.734 254.877 282.185 250.55 282.185H122.661C118.353 282.185 114.85 278.734 114.85 274.459V20.7472C114.85 16.472 118.334 13.0211 122.661 13.0211H250.569C254.877 13.0211 258.361 16.472 258.361 20.7472Z" fill="#152B44"/>
<path d="M256.159 23.2969V271.909C256.159 276.108 252.771 279.482 248.597 279.482H124.614C120.421 279.482 117.052 276.089 117.052 271.909V23.2969C117.052 19.0984 120.44 15.7243 124.614 15.7243H248.597C252.771 15.7243 256.159 19.1176 256.159 23.2969Z" fill="#CBF2F4"/>
<path d="M256.159 125.94V271.909C256.159 276.108 252.771 279.482 248.597 279.482H124.614C120.421 279.482 117.052 276.089 117.052 271.909V101.803C134.473 116.565 153.293 139.11 148.813 165.164C140.83 211.693 170.562 246.028 195.336 238.762C220.109 231.477 230.926 210.389 243.543 217.54C256.159 224.691 232.726 136.062 253.268 126.783C254.168 126.38 255.145 126.093 256.159 125.94Z" fill="#A1D6D6"/>
<path d="M256.159 229.79V271.929C256.159 276.127 252.771 279.501 248.597 279.501H124.614C120.421 279.501 117.052 276.108 117.052 271.929V209.43C126.471 216.14 136.024 225.17 137.192 234.775C139.585 254.464 157.869 276.472 191.602 265.295C225.355 254.118 242.298 272.849 249.229 253.371C252.503 244.149 253.632 234.679 256.159 229.79Z" fill="#7CBFBE"/>
<g opacity="0.65">
<path opacity="0.65" d="M188.482 15.7243L117.032 127.646V113.076L178.392 15.7243H188.482Z" fill="white"/>
<path opacity="0.65" d="M242.03 15.7243L117.032 204.446V161.694L210.556 15.7243H242.03Z" fill="white"/>
<path opacity="0.65" d="M256.159 102.436V130.483L151.819 279.501H134.531L256.159 102.436Z" fill="white"/>
<path opacity="0.65" d="M175.922 279.501L256.159 158.972V173.101L186.261 279.501H175.922Z" fill="white"/>
</g>
<path d="M277.736 150.939C277.257 152.76 266.249 167.56 256.159 178.296C249.861 185.006 243.926 190.125 241.111 189.511C233.932 187.901 216.931 172.027 216.395 171.529C216.452 171.951 220.952 196.356 222.77 209.143C222.981 210.619 223.153 211.942 223.287 213.054C224.513 223.885 233.836 279.501 233.836 279.501H205.999C205.999 279.501 205.98 279.424 205.961 279.29C205.54 275.571 199.739 225.093 197.173 197.928C196.561 191.62 196.14 186.578 195.986 183.664C195.948 182.897 195.891 182.073 195.852 181.191C195.833 180.75 195.814 180.29 195.776 179.811C195.718 178.622 195.642 177.357 195.565 176.034C195.527 175.229 195.47 174.405 195.412 173.561C195.412 173.446 195.393 173.35 195.393 173.235C195.316 171.931 195.24 170.57 195.144 169.152C195.087 168.155 195.01 167.119 194.953 166.084C194.895 164.934 194.819 163.765 194.742 162.576C194.685 161.617 194.608 160.64 194.551 159.662C194.493 158.684 194.417 157.706 194.359 156.729C194.263 155.425 194.187 154.102 194.091 152.799C194.072 152.473 194.053 152.147 194.034 151.821C194.014 151.38 193.976 150.939 193.938 150.498C193.9 149.961 193.88 149.444 193.842 148.907C193.727 147.277 193.632 145.667 193.517 144.095C193.498 143.941 193.498 143.788 193.478 143.635V143.501C193.383 142.331 193.325 141.2 193.249 140.088C193.249 139.954 193.23 139.82 193.23 139.685C193.191 139.11 193.153 138.535 193.115 137.96C192.962 135.679 192.827 133.57 192.693 131.672C192.655 131.231 192.636 130.809 192.598 130.387C192.559 129.946 192.54 129.525 192.502 129.103V129.084C192.311 126.266 192.157 124.214 192.1 123.237C192.062 122.834 192.062 122.623 192.062 122.623C192.062 122.623 192.579 122.661 193.478 122.738C195.106 122.872 197.939 123.179 201.06 123.793C206.325 124.809 212.375 126.668 214.71 130.004C219.228 136.407 240.843 170.168 242.643 168.902C244.442 167.637 267.742 140.088 269.752 141.296C270.039 141.468 270.441 141.737 270.901 142.082H270.92C272.318 143.098 274.27 144.747 275.745 146.453C277.123 148.063 278.061 149.693 277.736 150.939Z" fill="#EBF4F7"/>
<path d="M256.159 178.296C249.861 185.006 243.926 190.125 241.111 189.511C233.932 187.901 216.931 172.027 216.395 171.529C216.452 171.951 220.952 196.356 222.77 209.143C222.081 208.97 221.449 208.779 220.837 208.548C213.083 205.749 201.653 187.748 201.653 187.748C201.653 187.748 207.033 172.066 206.803 162.384C206.612 153.22 205.157 147.181 205.004 146.549C205.425 147.584 212.26 164.282 221.794 173.58C231.654 183.185 247.678 183.53 256.159 178.296Z" fill="#C6DFE5"/>
<path d="M181.915 278.83H192.062C192.062 278.83 189.822 220.262 191.066 201.359C191.104 200.727 191.143 200.132 191.2 199.596C191.219 199.442 191.238 199.289 191.238 199.135C191.679 194.803 191.066 188.879 189.879 182.284C187.218 167.522 181.685 149.501 178.718 139.091C178.143 137.04 177.665 135.276 177.32 133.896C176.612 131.001 176.19 128.854 175.942 127.262V127.205C175.942 127.205 177.665 129.256 180.345 130.79C181.8 131.614 183.542 132.285 185.418 132.4C190.817 132.745 192.483 129.084 192.483 129.084L192.502 129.141V129.16C192.54 129.563 192.559 129.985 192.598 130.445C192.636 130.847 192.655 131.269 192.693 131.729C192.751 132.477 192.808 133.244 192.847 134.049C192.923 135.295 193 136.618 193.115 137.998C193.153 138.554 193.191 139.129 193.23 139.724C193.306 140.951 193.383 142.216 193.498 143.539V143.673C193.517 143.826 193.517 143.98 193.536 144.133C193.651 145.705 193.746 147.296 193.861 148.945C193.9 149.482 193.919 150 193.957 150.536C193.995 150.977 194.015 151.418 194.053 151.859C194.072 152.185 194.091 152.511 194.11 152.837C194.206 154.141 194.283 155.463 194.378 156.767C194.436 157.745 194.512 158.722 194.57 159.7C194.627 160.678 194.685 161.656 194.761 162.614C194.838 163.803 194.914 164.972 194.972 166.123C195.029 167.158 195.106 168.193 195.163 169.19C195.259 170.589 195.336 171.97 195.412 173.273C195.431 173.388 195.431 173.484 195.431 173.599C195.489 174.443 195.546 175.267 195.584 176.072C195.661 177.395 195.738 178.68 195.795 179.849C195.833 180.328 195.852 180.789 195.872 181.229C195.891 181.594 195.91 181.92 195.929 182.265C195.948 182.782 195.986 183.262 196.006 183.722C196.159 186.636 196.58 191.678 197.193 197.985C197.307 199.212 197.422 200.497 197.556 201.819C197.997 206.363 198.514 211.386 199.069 216.639C200.868 233.912 203.089 253.62 204.506 266.311C205.233 272.772 205.77 277.392 205.942 278.984C205.961 279.137 205.98 279.271 205.98 279.367L181.915 278.83Z" fill="#EA3946"/>
<path d="M181.915 278.83H192.062C192.062 278.83 189.822 220.262 191.066 201.359C191.104 200.727 191.143 200.132 191.2 199.596C191.219 199.442 191.238 199.289 191.238 199.135C191.679 194.803 191.066 188.879 189.879 182.284C187.218 167.522 181.685 149.501 178.718 139.091C178.143 137.04 177.665 135.276 177.32 133.896C176.612 131.001 176.19 128.854 175.942 127.262V127.205C175.942 127.205 177.665 129.256 180.345 130.79C181.072 137.577 182.623 147.22 185.878 158.933C190.683 176.226 192.521 180.865 195.891 182.226C195.91 182.744 195.948 183.223 195.967 183.683C196.12 186.597 196.542 191.639 197.154 197.947C197.269 199.174 197.384 200.458 197.518 201.781C194.953 203.852 192.713 206.919 192.655 211.252C192.54 221.47 191.621 252.853 195.316 265.315C197.671 273.213 202.591 277.124 205.884 278.926C205.904 279.079 205.923 279.214 205.923 279.31L181.915 278.83Z" fill="#962333"/>
<path d="M153.81 278.83L154.882 200.88C154.882 200.88 133.248 196.816 133.669 182.476C133.937 172.717 137.594 153.642 142.112 141.296C144.18 135.602 146.439 131.346 148.66 130.061C148.717 130.023 148.756 130.004 148.813 129.966C154.786 126.86 170.409 123.754 174.984 122.891C175.386 122.834 175.693 122.757 175.922 122.719H175.942C175.98 122.719 175.999 122.7 176.037 122.7C176.076 122.681 176.133 122.681 176.152 122.681C176.114 122.719 176.056 122.738 176.018 122.815C175.999 122.815 175.999 122.815 175.999 122.834C175.903 122.949 175.846 123.141 175.788 123.486C175.769 123.543 175.769 123.601 175.75 123.677C175.693 124.329 175.712 125.422 175.961 127.205V127.262C176.19 128.854 176.612 131.001 177.339 133.896C177.684 135.276 178.162 137.04 178.737 139.091C178.832 139.417 178.928 139.743 179.024 140.069C182.049 150.613 187.333 167.963 189.898 182.284C191.085 188.86 191.698 194.803 191.258 199.135C191.238 199.289 191.219 199.442 191.219 199.596C191.162 200.132 191.124 200.727 191.085 201.359C189.822 220.281 192.081 278.83 192.081 278.83H153.81Z" fill="#EBF4F7"/>
<path d="M191.238 199.116C191.219 199.27 191.2 199.423 191.2 199.576C188.96 184.278 182.738 179.006 177.78 171.701C177.76 171.663 177.741 171.644 177.722 171.605C177.607 171.452 177.511 171.28 177.416 171.126C176.727 170.091 176.076 169.017 175.463 167.848C169.528 156.671 174.41 153.259 175.061 150.115C175.08 150 175.099 149.904 175.118 149.808C175.157 149.444 175.08 149.098 174.927 148.734C174.448 147.584 173.108 146.414 171.73 144.996C171.366 144.612 171.002 144.21 170.638 143.769C169.011 141.833 167.69 139.417 168.245 136.1C168.686 133.455 169.796 131.02 171.04 128.969C173.012 125.71 175.367 123.428 176.018 122.834C175.922 122.949 175.865 123.141 175.808 123.486C175.788 123.543 175.788 123.601 175.769 123.677C175.712 124.329 175.731 125.422 175.98 127.205V127.262C176.21 128.854 176.631 131.001 177.358 133.896C177.703 135.276 178.182 137.04 178.756 139.091C181.723 149.501 187.256 167.522 189.917 182.284C191.066 188.86 191.679 194.783 191.238 199.116Z" fill="white"/>
<path d="M202.84 178.488C202.457 184.029 199.241 192.751 197.135 197.928C196.523 191.62 196.101 186.578 195.948 183.664C195.91 182.897 195.852 182.073 195.814 181.191C195.795 180.75 195.776 180.29 195.738 179.811C195.68 178.622 195.604 177.357 195.527 176.034C195.489 175.229 195.431 174.405 195.374 173.561C195.374 173.446 195.355 173.35 195.355 173.235C195.278 171.931 195.202 170.57 195.106 169.152C195.048 168.155 194.972 167.119 194.914 166.084C194.857 164.934 194.78 163.765 194.704 162.576C194.646 161.617 194.57 160.64 194.512 159.662C194.455 158.684 194.378 157.706 194.321 156.729C194.225 155.425 194.149 154.102 194.053 152.799C194.034 152.473 194.015 152.147 193.995 151.821C193.976 151.38 193.938 150.939 193.9 150.498C193.861 149.961 193.842 149.444 193.804 148.907C193.689 147.277 193.593 145.667 193.478 144.095C193.459 143.941 193.459 143.788 193.459 143.635C193.44 143.596 193.44 143.539 193.44 143.501C193.344 142.197 193.249 140.912 193.172 139.685C193.134 139.11 193.096 138.535 193.057 137.96C192.904 135.679 192.77 133.57 192.636 131.672C192.598 131.231 192.579 130.809 192.54 130.387C192.502 129.946 192.483 129.525 192.445 129.103V129.084C192.253 126.266 192.1 124.214 192.043 123.237C192.004 122.834 192.004 122.623 192.004 122.623C192.004 122.623 192.004 122.642 192.023 122.642C192.081 122.719 192.311 123.026 192.655 123.543C195.067 126.994 203.376 139.302 202.764 143.635C202.055 148.677 197.901 150.843 199.356 156.269C200.83 161.713 203.415 170.187 202.84 178.488Z" fill="white"/>
<path d="M284.283 137.883C284.188 138.88 281.144 144.843 275.745 146.472C274.271 144.766 272.318 143.117 270.92 142.101V142.082C270.92 142.082 274.175 134.26 279.038 130.56C283.9 126.86 284.264 127.032 284.264 127.761C284.264 128.49 279.746 133.896 279.746 133.896C279.746 133.896 281.814 134.605 282.101 135.602C282.369 136.599 282.369 136.599 282.369 136.599C282.369 136.599 284.36 136.81 284.283 137.883Z" fill="#FFC7AE"/>
<path d="M211.264 149.003L210.23 149.329C210.192 149.233 206.957 139.034 201.672 131.979C197.767 126.783 194.263 124.444 192.713 123.582C192.617 123.543 192.54 123.486 192.483 123.447C192.33 123.371 192.215 123.313 192.119 123.275C191.966 123.198 191.889 123.16 191.889 123.16L192.081 122.642L192.272 122.125C192.33 122.144 192.77 122.316 193.498 122.738C195.259 123.754 198.705 126.17 202.553 131.308C207.933 138.554 211.226 148.907 211.264 149.003Z" fill="#1B2656"/>
<path opacity="0.68" d="M211.647 155.847C213.487 155.847 214.978 154.353 214.978 152.511C214.978 150.669 213.487 149.175 211.647 149.175C209.807 149.175 208.316 150.669 208.316 152.511C208.316 154.353 209.807 155.847 211.647 155.847Z" fill="#2E5793"/>
<path d="M211.647 154.217C212.588 154.217 213.351 153.453 213.351 152.511C213.351 151.569 212.588 150.805 211.647 150.805C210.706 150.805 209.943 151.569 209.943 152.511C209.943 153.453 210.706 154.217 211.647 154.217Z" fill="white"/>
<path d="M200.754 91.5081C200.754 91.5081 197.671 112.079 195.336 114.878C193 117.677 191.87 118.041 191.87 118.041L192.062 122.661L191.87 123.179C191.889 123.179 191.966 123.217 192.1 123.294C192.119 123.39 192.119 123.486 192.119 123.582C192.177 124.636 192.33 126.572 192.502 129.141L192.483 129.084C192.483 129.084 190.836 132.726 185.418 132.4C180.019 132.055 175.942 127.205 175.942 127.205C175.674 125.422 175.654 124.348 175.731 123.677C176.037 123.428 176.248 123.294 176.267 123.294L175.98 122.834C175.98 122.815 175.98 122.815 175.999 122.815C176.037 122.738 176.095 122.7 176.133 122.681C176.095 122.7 176.056 122.7 176.018 122.7C176.171 121.799 177.129 116.22 176.803 111.715C176.688 110.238 176.459 108.896 175.999 107.861C175.999 107.842 175.98 107.842 175.98 107.823C175.769 107.363 175.54 106.96 175.233 106.653C175.176 106.596 175.176 106.577 175.176 106.577C171.94 103.337 167.69 101.439 169.585 98.0072C171.481 94.5755 174.716 96.7419 177.971 95.4766C181.206 94.2113 195.718 83.3795 195.718 83.3795C195.718 83.3795 195.872 85.0858 197.518 87.7122C199.126 90.3387 200.754 91.5081 200.754 91.5081Z" fill="#FFC7AE"/>
<path d="M176.115 122.681C176.077 122.7 176.038 122.7 175.999 122.7C175.999 122.758 175.98 122.797 175.98 122.816C176.038 122.739 176.077 122.7 176.115 122.681ZM175.98 122.816C175.98 122.835 175.98 122.816 175.98 122.816V122.816Z" fill="black"/>
<path d="M201.06 123.831C197.939 123.217 195.087 122.93 193.478 122.776C192.579 122.7 192.062 122.661 192.062 122.661L191.87 118.041C191.87 118.041 193 117.677 195.335 114.878C197.671 112.079 200.754 91.5081 200.754 91.5081C200.754 91.5081 199.126 90.3387 197.499 87.7122C195.872 85.0858 195.699 83.3795 195.699 83.3795C195.699 83.3795 181.187 94.2113 177.952 95.4766C174.716 96.7419 171.462 94.5755 169.566 98.0072C167.671 101.439 171.921 103.337 175.157 106.577C178.201 109.625 176.229 121.339 175.999 122.681C175.961 122.681 175.942 122.7 175.903 122.7H175.884C175.674 122.738 175.348 122.815 174.946 122.872C172.4 123.352 166.35 124.54 160.492 126.036C155.878 127.224 151.398 128.566 148.775 129.946C148.717 129.966 148.679 130.004 148.622 130.042C148.334 130.196 148.066 130.426 147.779 130.675C146.516 131.825 145.252 133.877 144.008 136.541C143.357 137.96 142.706 139.57 142.074 141.277C140.638 141.047 139.087 140.625 137.422 139.973C128.098 136.33 124.575 122.105 132.272 116.297C139.987 110.468 134.837 104.928 136.196 97.0678C137.556 89.2268 154.174 92.7351 162.138 80.0246C166.541 72.9695 174.104 67.8508 182.413 67.3524C183.657 67.2757 184.94 67.2949 186.203 67.4482C198.399 68.8094 203.778 81.0982 205.253 91.9107C206.746 102.57 204.085 114.494 201.06 123.831Z" fill="#1B2656"/>
<path opacity="0.36" d="M169.566 98.0072C167.671 101.439 171.921 103.337 175.157 106.577C178.201 109.625 176.229 121.339 175.999 122.681C175.961 122.681 175.942 122.7 175.903 122.7H175.884C175.674 122.738 175.348 122.815 174.946 122.872C172.4 123.352 166.35 124.54 160.492 126.036C161.87 121.358 162.98 115.53 160.606 113.881C156.471 110.986 163.497 97.988 163.497 97.988C163.497 97.988 150.709 99.7901 151.417 109.165C152.144 118.559 149.253 117.121 145.463 123.773C143.835 126.649 145.424 128.95 147.76 130.617C146.497 131.768 145.233 133.819 143.989 136.484C142.285 134.912 140.485 132.784 138.781 129.985C132.463 119.594 146.171 121.415 143.816 110.219C141.481 99.0424 151.034 91.6423 159.132 93.0802C164.321 94.0004 169.566 89.9169 173.204 86.7153C174.812 85.3158 176.114 83.4562 177.626 81.8267C178.871 80.5038 180.23 79.3344 181.953 78.7209C185.246 77.5515 188.845 78.5292 191.698 80.3696C192.234 80.7147 195.757 82.6894 195.604 83.322C195.604 83.322 181.092 94.1538 177.856 95.4191C174.697 96.7419 171.462 94.5755 169.566 98.0072Z" fill="#2E5793"/>
<path d="M193.383 200.784C192.674 201.053 191.87 201.225 191.066 201.34C191.066 201.34 191.047 201.34 191.028 201.359C188.998 201.647 186.759 201.589 184.921 201.724C178.048 202.164 171.04 202.433 164.148 201.954C156.375 201.417 154.901 200.88 154.901 200.88C154.901 200.88 154.269 200.765 153.197 200.497C148.105 199.193 133.344 194.362 133.688 182.476C134.091 168.231 141.691 134.107 148.679 130.042C152.508 130.828 157.371 133.531 158.022 142.005C158.424 147.335 156.931 153.7 155.495 159.662C155.495 159.662 155.495 159.662 155.476 159.681C155.495 159.7 155.476 159.7 155.476 159.7V159.719C155.476 159.739 155.476 159.739 155.456 159.739C155.418 159.873 155.322 160.199 155.246 160.678C155.246 160.697 155.246 160.697 155.227 160.716C152.948 170.168 151.168 178.392 158.003 179.523C163.861 180.501 169.834 180.789 175.769 181.172C178.411 181.364 181.245 181.402 184.059 181.613C186.031 181.728 188.003 181.939 189.879 182.303C191.143 182.552 192.387 182.859 193.574 183.281C193.804 183.357 194.034 183.453 194.187 183.645C194.34 183.856 194.378 184.124 194.397 184.374C194.723 187.518 195.048 190.662 195.144 193.825C195.163 194.285 195.201 194.822 195.259 195.378C195.412 197.487 195.546 199.979 193.383 200.784Z" fill="#EBF4F7"/>
<path d="M155.437 159.7C155.456 159.681 155.456 159.681 155.456 159.681C155.38 160.007 155.303 160.314 155.227 160.64C155.322 160.141 155.418 159.815 155.437 159.7Z" fill="#EBF4F7"/>
<path d="M155.478 159.643C155.478 159.664 155.478 159.664 155.456 159.664C155.456 159.664 155.478 159.664 155.478 159.643Z" fill="#EBF4F7"/>
<path d="M155.227 160.678C154.729 163.534 154.537 171.625 166.905 176.034C182.087 181.44 183.198 179.082 183.198 179.082L184.078 181.555C181.264 181.364 178.43 181.306 175.788 181.114C169.873 180.712 163.88 180.424 158.022 179.466C151.168 178.354 152.948 170.129 155.227 160.678Z" fill="#C6DFE5"/>
<path d="M191.028 201.359C190.128 201.628 175.635 205.692 168.092 205.98C160.3 206.286 154.595 221.987 154.595 221.987C154.595 221.987 153.906 211.539 153.197 200.477C154.25 200.746 154.901 200.861 154.901 200.861C154.901 200.861 156.395 201.398 164.148 201.934C171.04 202.414 178.048 202.145 184.921 201.704C186.759 201.589 188.979 201.647 191.028 201.359Z" fill="#C6DFE5"/>
<path opacity="0.46" d="M145.348 138.056C146.075 137.73 146.899 137.998 147.856 139.321C149.349 141.43 148.813 144.325 148.2 146.855C147.224 150.843 146.267 154.831 145.29 158.837C144.142 163.573 142.993 168.308 141.653 172.986C140.925 175.555 140.121 178.143 138.8 180.463C138.475 181.019 138.015 181.632 137.364 181.613C136.752 181.575 136.35 180.98 136.12 180.405C135.45 178.776 135.392 176.973 135.412 175.21C135.45 167.944 136.503 160.678 138.475 153.7C139.47 150.153 140.715 146.683 142.189 143.309C142.821 141.813 143.855 138.708 145.348 138.056Z" fill="white"/>
<path opacity="0.46" d="M138.839 187.959C138.762 187.173 139.202 186.406 140.447 185.677C144.793 183.204 150.938 184.738 155.456 185.888C170.37 189.684 191.641 188.783 191.373 192.751C191.105 196.72 193.976 201.129 170.064 199.576C164.053 199.193 158.003 198.407 152.259 196.586C149.311 195.646 146.439 194.438 143.816 192.809C142.208 191.793 139.011 189.876 138.839 187.959Z" fill="white"/>
<path opacity="0.46" d="M160.492 140.088C159.171 142.734 158.309 146.779 158.079 147.661C156.969 152.166 155.705 157.725 157.39 162.25C158.807 166.027 162.176 168.73 165.584 170.647C166.503 171.164 175.425 175.516 174.869 172.526C174.142 168.557 166.254 164.589 166.427 152.492C166.58 140.414 164.608 138.497 163.516 137.922C162.368 137.308 161.334 138.42 160.492 140.088Z" fill="white"/>
<path d="M181.015 170.264C180.632 171.49 179.464 171.74 178.45 171.74C178.201 171.74 177.971 171.721 177.76 171.701C177.607 171.682 177.454 171.663 177.32 171.663L177.377 171.126L177.435 170.589C178.794 170.724 179.751 170.685 179.981 169.957C180.536 168.155 180.307 166.142 180.096 164.205C180.058 163.86 180.019 163.534 179.981 163.208C179.751 160.85 179.426 158.358 178.718 156C178.182 154.217 177.09 151.648 175.003 150.115C174.027 149.386 172.821 148.888 171.347 148.811C171.308 148.849 171.251 148.907 171.213 148.926C168.839 150.728 167.039 152.837 166.005 155.08C164.991 157.265 164.799 159.777 164.761 161.694C164.742 162.039 164.723 162.48 164.703 162.959C164.569 165.279 164.34 169.152 165.833 170.743C166.292 171.222 166.886 171.471 167.652 171.471V172.545C166.58 172.545 165.699 172.181 165.029 171.471C163.229 169.535 163.459 165.547 163.593 162.883C163.631 162.422 163.65 162.001 163.65 161.656C163.689 159.623 163.899 156.997 164.991 154.62C166.101 152.223 168.016 149.961 170.524 148.063C170.562 148.025 170.619 148.006 170.619 147.987C170.6 147.987 170.6 147.929 170.6 147.891C170.581 146.491 170.562 145.111 170.543 143.769C170.504 139.532 170.524 135.525 170.581 131.672C170.6 130.694 170.715 129.793 170.945 128.969C171.768 125.767 173.816 123.773 174.908 122.891C175.31 122.585 175.597 122.412 175.635 122.374L175.846 122.719H175.865L175.922 122.834L176.21 123.294C176.19 123.294 175.999 123.428 175.674 123.677C175.654 123.697 175.635 123.716 175.616 123.716C174.41 124.693 171.73 127.358 171.672 131.672C171.615 135.889 171.596 140.28 171.634 144.996C171.653 145.897 171.672 146.817 171.672 147.756C172.878 147.872 173.912 148.217 174.812 148.734C177.645 150.345 179.043 153.546 179.694 155.693C180.422 158.128 180.747 160.697 180.996 163.093C181.034 163.419 181.053 163.745 181.092 164.071C181.379 166.027 181.628 168.231 181.015 170.264Z" fill="#1B2656"/>
<path d="M249.229 158.914L235.502 204.925L234.927 206.823H194.397L207.914 165.164L209.943 158.914H249.229Z" fill="#6C2C77"/>
<path d="M235.502 204.925L234.927 206.823H194.397L207.933 165.164C205.444 176.283 202.228 195.435 208.335 200.477C214.366 205.5 226.178 204.849 235.502 204.925Z" fill="#501A57"/>
<path d="M213.734 165.528C211.781 167.675 211.571 171.452 211.322 174.194C210.843 179.677 211.819 185.485 215.591 189.703C223.9 199.04 238.144 193.096 239.943 178.833C241.743 164.57 239.407 163.669 231.826 162.595C228.303 162.097 224.723 162.442 221.258 163.113C219.631 163.419 217.984 163.611 216.357 163.995C215.246 164.263 214.385 164.8 213.734 165.528Z" fill="#6C2C77"/>
<path d="M214.614 183.549C212.987 186.08 207.052 192.675 203.53 194.381C200.926 195.646 197.633 195.57 196.082 195.455C195.546 195.416 195.221 195.359 195.221 195.359C195.163 194.803 195.125 194.285 195.106 193.806C195.01 190.643 194.685 187.498 194.359 184.354C194.359 184.354 196.082 183.568 197.958 182.878C200.505 181.939 203.338 181.153 202.611 182.648C201.347 185.255 201.347 185.255 201.347 185.255C201.347 185.255 212.068 182.111 213.868 180.923C215.706 179.753 216.242 181.019 214.614 183.549Z" fill="#FFC7AE"/>
<path d="M195.336 189.914C195.24 191.563 195.642 193.633 196.101 195.455C195.565 195.416 195.24 195.359 195.24 195.359C195.182 194.803 195.144 194.285 195.125 193.806C195.029 190.643 194.704 187.498 194.378 184.354C194.378 184.354 196.101 183.568 197.978 182.878C197.997 182.878 195.527 186.022 195.336 189.914Z" fill="#F9AC8A"/>
<path d="M211.973 186.904C211.973 186.904 207.416 190.853 204.525 191.026C201.634 191.198 201.634 191.198 201.634 191.198C201.634 191.198 204.276 191.486 206.497 191.198C208.737 190.93 211.973 186.904 211.973 186.904Z" fill="#ED8772"/>
<path d="M195.546 176.034C192.1 175.306 190.568 168.73 189.726 166.008C187.869 159.988 186.644 153.757 185.572 147.565C185.055 144.651 184.557 141.737 184.078 138.823C184.021 138.497 183.963 138.133 183.944 137.768C183.848 136.388 184.136 134.969 185.974 135.736C188.233 136.676 190.779 134.797 192.847 134.03C192.923 135.276 193 136.599 193.115 137.979C193.153 138.535 193.191 139.11 193.23 139.705C193.306 140.932 193.383 142.197 193.498 143.52V143.654C193.517 143.807 193.517 143.961 193.536 144.114C193.651 145.686 193.746 147.277 193.861 148.926C193.9 149.463 193.919 149.98 193.957 150.517C193.995 150.958 194.014 151.399 194.053 151.84C194.072 152.166 194.091 152.492 194.11 152.818C194.206 154.121 194.283 155.444 194.378 156.748C194.436 157.726 194.512 158.703 194.57 159.681C194.627 160.659 194.685 161.636 194.761 162.595C194.838 163.784 194.914 164.953 194.972 166.103C195.029 167.139 195.106 168.174 195.163 169.171C195.259 170.57 195.336 171.951 195.412 173.254C195.431 173.369 195.431 173.465 195.431 173.58C195.45 174.405 195.508 175.229 195.546 176.034Z" fill="#F74B60"/>
<path d="M204.468 266.235C201.711 267.116 199.241 267.864 197.748 266.215C194.972 263.167 190.875 219.553 199.03 216.562C200.83 233.854 203.032 253.562 204.468 266.235Z" fill="#F74B60"/>
<path opacity="0.46" d="M268.24 145.245C268.297 145.264 268.355 145.283 268.412 145.322C268.833 145.552 269.025 146.031 269.159 146.491C270.059 149.578 269.657 152.952 268.45 155.943C267.244 158.933 265.272 161.541 263.051 163.88C259.759 167.349 255.891 170.244 251.66 172.43C250.377 173.101 248.597 173.599 247.659 172.507C247.219 171.989 247.123 171.28 247.104 170.609C246.97 165.356 250.933 161.234 254.149 157.515C257.844 153.24 261.96 149.329 266.44 145.878C266.938 145.475 267.627 145.053 268.24 145.245Z" fill="white"/>
<path d="M192.119 123.562C190.473 123.467 185.667 122.987 181.991 120.112C179.656 118.29 177.914 114.724 176.765 111.715C176.65 110.238 176.42 108.896 175.961 107.861C176.535 108.801 177.531 110.43 179.196 113.248C182.891 119.479 191.851 118.041 191.851 118.041L192.043 122.661L191.851 123.179C191.87 123.179 191.947 123.217 192.081 123.294C192.119 123.371 192.119 123.467 192.119 123.562Z" fill="#ED8772"/>
<path d="M350.046 320.884C350.41 320.884 350.41 320.309 350.046 320.309C349.683 320.309 349.683 320.884 350.046 320.884Z" fill="#152B44"/>
</svg>
