<svg width="173" height="19" viewBox="0 0 173 19" fill="none" xmlns="http://www.w3.org/2000/svg">
<path opacity="0.95" d="M0.839287 14.6877H10.3433V12.5097H3.34729V9.07774H9.70529V6.92174H3.34729V3.66574H10.3653V1.48774H0.839287V14.6877ZM15.8498 13.0597C14.5078 13.0597 14.0458 12.4217 14.0458 11.6737C14.0458 10.8157 14.7278 10.3757 15.9158 10.3757H18.5998V10.7937C18.5998 12.0917 17.4998 13.0597 15.8498 13.0597ZM18.7098 14.6877H20.9538V8.08774C20.9538 5.51374 19.6778 4.10574 16.6858 4.10574C14.0458 4.10574 12.5718 5.35974 12.1758 7.31774L14.4198 7.82374C14.6838 6.61374 15.3878 5.99774 16.5978 5.99774C18.0498 5.99774 18.5998 6.76774 18.5998 8.10974V8.81374H15.5198C12.9018 8.81374 11.7798 10.1557 11.7798 12.0037C11.7798 14.0277 13.0778 14.9077 14.9258 14.9077C16.7518 14.9077 17.9398 13.8957 18.4678 12.2237H18.7098V14.6877ZM25.7068 14.6877V9.78174C25.7068 7.66974 26.4768 6.89974 28.6549 6.89974H29.2268V4.23774H28.8529C27.3568 4.23774 26.3888 4.96374 25.7948 7.47174L25.5968 7.44974V4.34774H23.3528V14.6877H25.7068ZM33.1834 8.83574C33.1834 7.27374 34.2394 6.21774 35.8234 6.21774C37.2534 6.21774 37.8034 7.14174 37.8034 8.39574V14.6877H40.1574V7.77974C40.1574 5.53574 39.1234 4.08374 36.9674 4.08374C35.2294 4.08374 33.9094 5.16174 33.3374 7.07574H33.1394V4.34774H30.8294V14.6877H33.1834V8.83574ZM45.1349 2.58774V0.673744H42.5609V2.58774H45.1349ZM45.0249 14.6877V4.34774H42.6489V14.6877H45.0249ZM50.0057 8.83574C50.0057 7.27374 51.0617 6.21774 52.6457 6.21774C54.0757 6.21774 54.6257 7.14174 54.6257 8.39574V14.6877H56.9797V7.77974C56.9797 5.53574 55.9457 4.08374 53.7897 4.08374C52.0517 4.08374 50.7317 5.16174 50.1597 7.07574H49.9617V4.34774H47.6517V14.6877H50.0057V8.83574ZM63.3432 6.19574C64.9712 6.19574 65.7632 6.89974 65.7632 7.99974C65.7632 9.09974 65.0812 9.80374 63.3652 9.80374C61.6492 9.80374 61.0332 9.09974 61.0332 7.99974C61.0332 6.92174 61.6932 6.19574 63.3432 6.19574ZM63.5192 16.7557C60.8352 16.7557 60.1752 16.4037 60.1752 15.5677C60.1752 14.9957 60.7472 14.4237 61.8692 14.4237H65.4992C66.5112 14.4237 66.9292 14.8417 66.9292 15.4357C66.9292 16.3157 66.2912 16.7557 63.5192 16.7557ZM68.8212 15.3697C68.8212 13.7637 67.7652 12.8177 65.5872 12.8177C64.4652 12.8177 63.2772 12.8397 62.1112 12.8397C61.4292 12.8397 61.0992 12.6857 61.0992 12.2677C61.0992 12.0477 61.2092 11.8717 61.3632 11.6077L61.6052 11.2337C62.1112 11.3657 62.6832 11.4317 63.3432 11.4317C66.2252 11.4317 67.7872 10.3097 67.7872 8.46174C67.7872 7.09774 66.6432 6.52574 65.2792 6.26174L65.3012 6.06374C66.1812 6.12974 66.8412 6.17374 67.3912 6.17374H68.5792V4.34774H63.4532C60.5932 4.34774 58.8992 5.62374 58.8992 7.95574C58.8992 9.51774 59.7132 10.6397 61.2532 11.1457L60.4612 11.5857C59.7352 11.9377 59.2952 12.4217 59.2952 12.9717C59.2952 13.6977 59.7792 14.1817 60.7032 14.3577V14.4457C59.2952 14.7537 58.3272 15.4137 58.3272 16.3157C58.3272 17.6357 59.4712 18.4717 63.3872 18.4717C67.4792 18.4717 68.8212 17.4597 68.8212 15.3697ZM74.4527 14.9737C77.4227 14.9737 78.6987 13.7417 78.6987 11.8277C78.6987 10.1997 77.7747 9.16574 74.7167 8.59374C72.7587 8.24174 72.3187 7.73574 72.3187 7.00974C72.3187 6.23974 72.9347 5.77774 74.1447 5.77774C75.3767 5.77774 75.9927 6.26174 76.2787 7.53774L78.4127 7.07574C77.9947 5.24974 77.0267 4.08374 74.1887 4.08374C71.4387 4.08374 70.0747 5.27174 70.0747 7.14174C70.0747 8.85774 71.0427 9.78174 73.7927 10.3317C75.8387 10.7057 76.4107 11.1017 76.4107 11.9157C76.4107 12.7957 75.7507 13.2357 74.4967 13.2357C72.8247 13.2357 72.0987 12.4437 71.7687 11.1897L69.6347 11.6297C70.0087 13.6097 71.1087 14.9737 74.4527 14.9737ZM85.2847 11.5417C85.2847 13.4777 86.2527 14.9737 88.5187 14.9737C89.5527 14.9737 90.0807 14.8417 90.8507 14.5997L90.5647 12.4877C90.0587 12.6417 89.5967 12.7517 89.0687 12.7517C88.0347 12.7517 87.6607 12.2237 87.6607 11.2117V6.26174H90.6967V4.34774H87.6607V1.55374H85.2847V4.34774H83.8327V6.26174H85.2847V11.5417ZM94.8865 8.83574C94.8865 7.27374 95.9425 6.21774 97.5485 6.21774C98.9345 6.21774 99.5065 7.14174 99.5065 8.39574V14.6877H101.861V7.77974C101.861 5.53574 100.849 4.08374 98.7145 4.08374C96.9105 4.08374 95.6565 5.18374 95.0625 7.07574H94.8865V0.563744H92.5325V14.6877H94.8865V8.83574ZM106.838 2.58774V0.673744H104.264V2.58774H106.838ZM106.728 14.6877V4.34774H104.352V14.6877H106.728ZM113.447 14.9737C116.417 14.9737 117.693 13.7417 117.693 11.8277C117.693 10.1997 116.769 9.16574 113.711 8.59374C111.753 8.24174 111.313 7.73574 111.313 7.00974C111.313 6.23974 111.929 5.77774 113.139 5.77774C114.371 5.77774 114.987 6.26174 115.273 7.53774L117.407 7.07574C116.989 5.24974 116.021 4.08374 113.183 4.08374C110.433 4.08374 109.069 5.27174 109.069 7.14174C109.069 8.85774 110.037 9.78174 112.787 10.3317C114.833 10.7057 115.405 11.1017 115.405 11.9157C115.405 12.7957 114.745 13.2357 113.491 13.2357C111.819 13.2357 111.093 12.4437 110.763 11.1897L108.629 11.6297C109.003 13.6097 110.103 14.9737 113.447 14.9737ZM132.067 4.34774H129.383L128.393 8.39574C128.019 9.84774 127.689 11.3657 127.403 12.9057H127.007C126.699 11.3657 126.325 9.93574 125.907 8.35174L124.873 4.34774H122.431L125.511 14.6877H128.547L129.581 10.1777C129.867 8.85774 130.153 7.44974 130.395 6.08574H130.747C130.967 7.47174 131.253 8.83574 131.561 10.1777L132.639 14.6877H135.741L138.821 4.34774H136.467L135.543 8.35174C135.147 9.95774 134.773 11.3657 134.465 12.9057H134.069C133.783 11.3437 133.453 9.82574 133.079 8.39574L132.067 4.34774ZM144.588 5.90974C146.238 5.90974 147.03 6.83374 147.118 8.61574H141.816C142.036 6.76774 142.982 5.90974 144.588 5.90974ZM144.654 14.9517C147.426 14.9517 148.724 13.6757 149.208 11.8057L147.184 11.2337C146.898 12.2237 146.326 13.0157 144.676 13.0157C142.916 13.0157 141.97 12.0697 141.794 10.1997H149.252C149.296 9.67174 149.296 9.20974 149.296 8.81374C149.296 5.97574 147.778 4.08374 144.654 4.08374C141.42 4.08374 139.44 6.15174 139.44 9.64974C139.44 13.1037 141.486 14.9517 144.654 14.9517ZM155.76 5.90974C157.41 5.90974 158.202 6.83374 158.29 8.61574H152.988C153.208 6.76774 154.154 5.90974 155.76 5.90974ZM155.826 14.9517C158.598 14.9517 159.896 13.6757 160.38 11.8057L158.356 11.2337C158.07 12.2237 157.498 13.0157 155.848 13.0157C154.088 13.0157 153.142 12.0697 152.966 10.1997H160.424C160.468 9.67174 160.468 9.20974 160.468 8.81374C160.468 5.97574 158.95 4.08374 155.826 4.08374C152.592 4.08374 150.612 6.15174 150.612 9.64974C150.612 13.1037 152.658 14.9517 155.826 14.9517ZM164.82 0.563744H162.444V14.6877H164.82V10.3537H165.766L169.308 14.6877H172.014V14.4457L167.636 9.42974L171.728 4.58974V4.34774H169.022L165.766 8.59374H164.82V0.563744Z" fill="#04C6FF"/>
</svg>
