<svg width="39" height="32" viewBox="0 0 39 32" fill="none" xmlns="http://www.w3.org/2000/svg">
<path fill-rule="evenodd" clip-rule="evenodd" d="M15.9296 30.3821C23.7959 30.3821 30.1729 24.0052 30.1729 16.1388C30.1729 8.27252 23.7959 1.8956 15.9296 1.8956C8.06329 1.8956 1.68637 8.27252 1.68637 16.1388C1.68637 24.0052 8.06329 30.3821 15.9296 30.3821ZM15.9296 31.612C24.4752 31.612 31.4028 24.6845 31.4028 16.1388C31.4028 7.59324 24.4752 0.665649 15.9296 0.665649C7.38401 0.665649 0.456421 7.59324 0.456421 16.1388C0.456421 24.6845 7.38401 31.612 15.9296 31.612Z" fill="url(#paint0_linear)"/>
<path fill-rule="evenodd" clip-rule="evenodd" d="M9.22931 19.8253C11.2653 27.4236 19.0754 31.9328 26.6737 29.8968C34.2719 27.8609 38.7811 20.0508 36.7452 12.4525C34.7092 4.85419 26.8991 0.345024 19.3008 2.38098C11.7025 4.41694 7.19335 12.227 9.22931 19.8253ZM8.04127 20.1437C10.253 28.3981 18.7376 33.2966 26.992 31.0849C35.2464 28.8731 40.145 20.3886 37.9332 12.1341C35.7214 3.87972 27.2369 -1.01883 18.9825 1.19294C10.728 3.40471 5.8295 11.8892 8.04127 20.1437Z" fill="url(#paint1_linear)"/>
<rect x="17.9579" y="11.2942" width="2.69952" height="9.68938" fill="white"/>
<rect x="24.1525" y="14.7891" width="2.69952" height="9.68938" transform="rotate(90 24.1525 14.7891)" fill="white"/>
<defs>
<linearGradient id="paint0_linear" x1="9.07927" y1="1.33966" x2="21.9964" y2="9.96631" gradientUnits="userSpaceOnUse">
<stop stop-color="#2E2D60"/>
<stop offset="0.671875" stop-color="#00CEB5"/>
<stop offset="1" stop-color="#04C6FF"/>
</linearGradient>
<linearGradient id="paint1_linear" x1="35.5092" y1="5.69166" x2="30.5197" y2="20.4014" gradientUnits="userSpaceOnUse">
<stop stop-color="#2E2D60"/>
<stop offset="0.671875" stop-color="#00CEB5"/>
<stop offset="1" stop-color="#04C6FF"/>
</linearGradient>
</defs>
</svg>
