<svg width="36" height="36" viewBox="0 0 36 36" fill="none" xmlns="http://www.w3.org/2000/svg">
<circle cx="18.0802" cy="17.802" r="17.7695" fill="#2E2D60"/>
<path d="M24.5017 20.3519C25.3517 21.4064 25.812 22.7167 25.812 24.0659C25.812 25.1011 25.1392 26.0179 24.1516 26.3244C20.1971 27.5521 15.9633 27.5521 12.0089 26.3244C11.0213 26.0179 10.3484 25.1011 10.3484 24.0659C10.3484 22.7163 10.8088 21.4064 11.6587 20.3519C12.489 19.317 13.7205 18.6796 15.0465 18.597C16.9352 19.6358 19.2252 19.6358 21.1139 18.597C22.4399 18.6796 23.6715 19.317 24.5017 20.3519Z" fill="white"/>
<path d="M18.0803 17.8022C20.688 17.8022 22.802 15.6882 22.802 13.0805C22.802 10.4727 20.688 8.35876 18.0803 8.35876C15.4726 8.35876 13.3586 10.4727 13.3586 13.0805C13.3586 15.6882 15.4726 17.8022 18.0803 17.8022Z" fill="white"/>
</svg>
