<svg width="16" height="19" viewBox="0 0 16 19" fill="none" xmlns="http://www.w3.org/2000/svg">
<g opacity="1">
<path d="M13.4593 12.542L13.4602 12.5431C14.2013 13.4626 14.6027 14.605 14.6027 15.7816C14.6027 16.5289 14.1169 17.1893 13.4066 17.4097L13.4065 17.4097C9.67564 18.568 5.68116 18.568 1.95027 17.4097L1.95022 17.4097C1.23989 17.1893 0.754112 16.5289 0.754112 15.7816C0.754112 14.6047 1.15551 13.4626 1.89663 12.5431L1.89746 12.542C2.56573 11.7091 3.54209 11.1799 4.60264 11.0704C6.53197 12.0642 8.82482 12.0642 10.7542 11.0704C11.8147 11.1799 12.7911 11.7091 13.4593 12.542Z" stroke="white" stroke-width="1.19035"/>
<path d="M11.6753 5.09784C11.6753 7.30524 9.88587 9.0947 7.67847 9.0947C5.47106 9.0947 3.6816 7.30524 3.6816 5.09784C3.6816 2.89043 5.47106 1.10097 7.67847 1.10097C9.88587 1.10097 11.6753 2.89043 11.6753 5.09784Z" stroke="white" stroke-width="1.19035"/>
</g>
</svg>
