<svg width="82" height="11" viewBox="0 0 82 11" fill="none" xmlns="http://www.w3.org/2000/svg">
<path d="M4.77117 10.2386C7.30617 10.2386 8.35617 9.20356 8.35617 7.67356C8.35617 6.41356 7.80117 5.79856 5.98617 5.63356V5.45356C7.26117 5.18356 7.96617 4.52356 7.96617 3.33856C7.96617 1.71856 6.96117 0.938562 4.72617 0.938562C2.49117 0.938562 1.47117 2.06356 1.20117 3.83356L2.77617 3.98356C2.97117 2.91856 3.43617 2.30356 4.74117 2.30356C5.85117 2.30356 6.37617 2.69356 6.37617 3.66856C6.37617 4.61356 5.76117 4.97356 4.84617 4.97356H3.36117V6.17356H4.87617C6.28617 6.17356 6.67617 6.60856 6.67617 7.49356C6.67617 8.36356 6.04617 8.88856 4.78617 8.88856C3.25617 8.88856 2.68617 8.22856 2.49117 7.07356L0.841174 7.26856C1.11117 9.27856 2.41617 10.2386 4.77117 10.2386Z" fill="#2E2D60"/>
<path d="M15.6758 10.2836C17.9108 10.2836 19.2308 8.85856 19.2308 6.54856C19.2308 4.22356 17.8358 2.85856 15.6758 2.85856C13.4858 2.85856 12.0908 4.22356 12.0908 6.54856C12.0908 8.85856 13.4108 10.2836 15.6758 10.2836ZM15.6608 4.22356C16.9658 4.22356 17.6258 5.07856 17.6258 6.53356C17.6258 7.98856 16.9958 8.88856 15.6608 8.88856C14.3108 8.88856 13.7108 7.98856 13.7108 6.53356C13.7108 5.07856 14.3558 4.22356 15.6608 4.22356ZM22.7135 2.67856C22.7135 1.85356 23.0585 1.44856 23.7935 1.44856C24.0785 1.44856 24.3335 1.47856 24.6485 1.52356L24.7085 0.368562C24.4235 0.308562 24.0635 0.248562 23.5085 0.248562C21.8735 0.248562 21.0935 1.22356 21.0935 2.64856V3.03856H19.9235V4.34356H21.0935V10.0886H22.7135V4.34356H24.6485V3.03856H22.7135V2.67856ZM32.0466 10.2386C34.5816 10.2386 35.6316 9.20356 35.6316 7.67356C35.6316 6.41356 35.0766 5.79856 33.2616 5.63356V5.45356C34.5366 5.18356 35.2416 4.52356 35.2416 3.33856C35.2416 1.71856 34.2366 0.938562 32.0016 0.938562C29.7666 0.938562 28.7466 2.06356 28.4766 3.83356L30.0516 3.98356C30.2466 2.91856 30.7116 2.30356 32.0166 2.30356C33.1266 2.30356 33.6516 2.69356 33.6516 3.66856C33.6516 4.61356 33.0366 4.97356 32.1216 4.97356H30.6366V6.17356H32.1516C33.5616 6.17356 33.9516 6.60856 33.9516 7.49356C33.9516 8.36356 33.3216 8.88856 32.0616 8.88856C30.5316 8.88856 29.9616 8.22856 29.7666 7.07356L28.1166 7.26856C28.3866 9.27856 29.6916 10.2386 32.0466 10.2386ZM41.3762 10.0886V6.74356C41.3762 5.30356 41.9012 4.77856 43.3862 4.77856H43.7762V2.96356H43.5212C42.5012 2.96356 41.8412 3.45856 41.4362 5.16856L41.3012 5.15356V3.03856H39.7712V10.0886H41.3762ZM47.9739 4.10356C49.0989 4.10356 49.6389 4.73356 49.6989 5.94856H46.0839C46.2339 4.68856 46.8789 4.10356 47.9739 4.10356ZM48.0189 10.2686C49.9089 10.2686 50.7939 9.39856 51.1239 8.12356L49.7439 7.73356C49.5489 8.40856 49.1589 8.94856 48.0339 8.94856C46.8339 8.94856 46.1889 8.30356 46.0689 7.02856H51.1539C51.1839 6.66856 51.1839 6.35356 51.1839 6.08356C51.1839 4.14856 50.1489 2.85856 48.0189 2.85856C45.8139 2.85856 44.4639 4.26856 44.4639 6.65356C44.4639 9.00856 45.8589 10.2686 48.0189 10.2686ZM55.2761 10.2836C57.3011 10.2836 58.1711 9.44356 58.1711 8.13856C58.1711 7.02856 57.5411 6.32356 55.4561 5.93356C54.1211 5.69356 53.8211 5.34856 53.8211 4.85356C53.8211 4.32856 54.2411 4.01356 55.0661 4.01356C55.9061 4.01356 56.3261 4.34356 56.5211 5.21356L57.9761 4.89856C57.6911 3.65356 57.0311 2.85856 55.0961 2.85856C53.2211 2.85856 52.2911 3.66856 52.2911 4.94356C52.2911 6.11356 52.9511 6.74356 54.8261 7.11856C56.2211 7.37356 56.6111 7.64356 56.6111 8.19856C56.6111 8.79856 56.1611 9.09856 55.3061 9.09856C54.1661 9.09856 53.6711 8.55856 53.4461 7.70356L51.9911 8.00356C52.2461 9.35356 52.9961 10.2836 55.2761 10.2836ZM64.1548 10.0886H65.7298V3.03856H64.1098V7.02856C64.1098 8.09356 63.4048 8.81356 62.3098 8.81356C61.3498 8.81356 60.9748 8.18356 60.9748 7.32856V3.03856H59.3548V7.74856C59.3548 9.27856 60.0598 10.2836 61.5448 10.2836C62.7148 10.2836 63.6148 9.53356 64.0048 8.22856H64.1548V10.0886ZM69.0778 0.458562H67.4578V10.0886H69.0778V0.458562ZM71.2016 7.94356C71.2016 9.26356 71.8616 10.2836 73.4066 10.2836C74.1116 10.2836 74.4716 10.1936 74.9966 10.0286L74.8016 8.58856C74.4566 8.69356 74.1416 8.76856 73.7816 8.76856C73.0766 8.76856 72.8216 8.40856 72.8216 7.71856V4.34356H74.8916V3.03856H72.8216V1.13356H71.2016V3.03856H70.2116V4.34356H71.2016V7.94356ZM78.9333 10.2836C80.9583 10.2836 81.8283 9.44356 81.8283 8.13856C81.8283 7.02856 81.1983 6.32356 79.1133 5.93356C77.7783 5.69356 77.4783 5.34856 77.4783 4.85356C77.4783 4.32856 77.8983 4.01356 78.7233 4.01356C79.5633 4.01356 79.9833 4.34356 80.1783 5.21356L81.6333 4.89856C81.3483 3.65356 80.6883 2.85856 78.7533 2.85856C76.8783 2.85856 75.9483 3.66856 75.9483 4.94356C75.9483 6.11356 76.6083 6.74356 78.4833 7.11856C79.8783 7.37356 80.2683 7.64356 80.2683 8.19856C80.2683 8.79856 79.8183 9.09856 78.9633 9.09856C77.8233 9.09856 77.3283 8.55856 77.1033 7.70356L75.6483 8.00356C75.9033 9.35356 76.6533 10.2836 78.9333 10.2836Z" fill="#9F9FB8"/>
</svg>
