<svg width="25" height="25" viewBox="0 0 25 25" fill="none" xmlns="http://www.w3.org/2000/svg">
<path d="M12.569 0.884277C6.15649 0.884277 0.939697 6.10107 0.939697 12.5136C0.939697 18.9261 6.15649 24.1429 12.569 24.1429C18.9815 24.1429 24.1983 18.9261 24.1983 12.5136C24.1983 6.10107 18.9815 0.884277 12.569 0.884277ZM12.569 22.0284C7.32206 22.0284 3.05411 17.76 3.05411 12.5136C3.05411 7.26717 7.32206 2.99869 12.569 2.99869C17.8154 2.99869 22.0839 7.26717 22.0839 12.5136C22.0839 17.76 17.8154 22.0284 12.569 22.0284ZM13.6262 5.11311H11.5118V12.9513L15.7861 17.2255L17.281 15.7307L13.6262 12.0759V5.11311Z" fill="#06BEF6"/>
</svg>
