<svg width="18" height="17" viewBox="0 0 18 17" fill="none" xmlns="http://www.w3.org/2000/svg">
<g opacity="1">
<path d="M8.64984 3.1098L8.72886 4.50568C7.00376 4.6242 6.14779 5.42749 6.14779 6.67852C6.14779 7.91638 6.83256 8.73284 8.99223 9.08839C10.5461 9.35177 10.9807 9.69415 10.9807 10.3526C10.9807 10.9847 10.4803 11.3797 9.38729 11.3797C8.18894 11.3797 7.47783 10.8398 7.2803 9.74683L5.84491 10.0497C6.02927 11.3402 6.79306 12.3411 8.74202 12.4991L8.64984 14.0925H9.86136L9.76918 12.5123C11.6786 12.4069 12.4819 11.5509 12.4819 10.2604C12.4819 9.14107 11.942 8.2851 9.58482 7.85053C7.92557 7.54765 7.62268 7.16576 7.62268 6.59951C7.62268 5.98058 8.09676 5.61186 9.09758 5.61186C10.2038 5.61186 10.5988 6.08593 10.8095 7.00774L12.2976 6.71803C12.0605 5.53284 11.3758 4.69005 9.78235 4.51885L9.86136 3.1098H8.64984Z" fill="white"/>
<rect x="1.25567" y="0.693461" width="15.8154" height="15.8154" rx="1.98392" stroke="white" stroke-width="0.793569"/>
</g>
</svg>
