<svg width="132" height="38" viewBox="0 0 132 38" fill="none" xmlns="http://www.w3.org/2000/svg">
<path d="M10.0353 0.0297737L10.2993 4.69377C4.53529 5.08977 1.67529 7.77377 1.67529 11.9538C1.67529 16.0898 3.96329 18.8178 11.1793 20.0058C16.3713 20.8858 17.8233 22.0298 17.8233 24.2298C17.8233 26.3418 16.1513 27.6618 12.4993 27.6618C8.49529 27.6618 6.11929 25.8578 5.45929 22.2058L0.663287 23.2178C1.27929 27.5298 3.83129 30.8738 10.3433 31.4018L10.0353 36.7258H14.0833L13.7753 31.4458C20.1553 31.0938 22.8393 28.2338 22.8393 23.9218C22.8393 20.1818 21.0353 17.3218 13.1593 15.8698C7.61529 14.8578 6.60329 13.5818 6.60329 11.6898C6.60329 9.62177 8.18729 8.38977 11.5313 8.38977C15.2273 8.38977 16.5473 9.97377 17.2513 13.0538L22.2233 12.0858C21.4313 8.12577 19.1433 5.30977 13.8193 4.73777L14.0833 0.0297737H10.0353ZM37.3424 8.47778C40.8624 8.47778 42.3584 10.1058 42.3584 12.4818C42.3584 15.2098 40.8184 16.6178 34.5264 18.3778C28.2344 20.1378 25.5064 22.5578 25.5064 28.5418C25.5064 29.5098 25.5064 30.3898 25.5504 31.2698H47.5064V27.0018H38.0464C35.6704 27.0018 32.2384 27.1778 29.8184 27.4418C29.9944 24.2738 31.5784 23.0858 36.9464 21.6338C43.1944 20.1378 47.2864 17.7178 47.2864 12.6578C47.2864 7.06977 43.7664 4.34177 37.3864 4.34177C30.3464 4.34177 27.0904 8.25778 26.3424 14.5498L31.0064 15.1218C31.5344 10.6778 33.5144 8.47778 37.3424 8.47778ZM51.3472 25.1978L48.1792 37.2098V37.4738H51.6552L56.1872 25.1978H51.3472ZM70.2493 27.7938C66.3333 27.7938 64.3973 25.8578 63.3413 23.1298L58.6773 24.4498C60.3053 29.4658 63.9573 31.7098 70.2053 31.7098C76.8493 31.7098 80.7653 29.0698 80.7653 23.1298C80.7653 18.2458 77.7733 15.2098 71.7893 15.2098C68.7093 15.2098 66.4213 16.0018 64.7933 17.0138V8.87378C68.2693 9.13777 73.0653 9.40178 79.3133 9.40178V4.86977H60.4373V18.8618L64.3533 20.3578C65.6733 19.4778 67.8293 18.7298 70.2933 18.7298C74.2533 18.7298 75.8813 20.2698 75.8813 23.0858C75.8813 26.2098 74.2093 27.7938 70.2493 27.7938ZM95.123 8.65378C99.611 8.65378 101.635 12.2178 101.635 17.9818C101.635 23.7898 99.611 27.5298 95.079 27.5298C90.635 27.5298 88.611 23.7898 88.611 17.9818C88.611 12.2178 90.635 8.65378 95.123 8.65378ZM95.123 4.29777C87.995 4.29777 83.639 9.35777 83.639 17.9818C83.639 26.6498 87.819 31.8418 95.123 31.8418C102.427 31.8418 106.607 26.6498 106.607 17.9818C106.607 9.35777 102.295 4.29777 95.123 4.29777ZM120.734 31.7098C128.17 31.7098 131.25 28.6738 131.25 24.1858C131.25 20.4898 129.622 18.6858 124.298 18.2018V17.6738C128.038 16.8818 130.106 14.9458 130.106 11.4698C130.106 6.71777 127.158 4.42977 120.602 4.42977C114.046 4.42977 111.054 7.72977 110.262 12.9218L114.882 13.3618C115.454 10.2378 116.818 8.43377 120.646 8.43377C123.902 8.43377 125.442 9.57777 125.442 12.4378C125.442 15.2098 123.638 16.2658 120.954 16.2658H116.598V19.7858H121.042C125.178 19.7858 126.322 21.0618 126.322 23.6578C126.322 26.2098 124.474 27.7498 120.778 27.7498C116.29 27.7498 114.618 25.8138 114.046 22.4258L109.206 22.9978C109.998 28.8938 113.826 31.7098 120.734 31.7098Z" fill="white"/>
</svg>
